<svg xmlns="http://www.w3.org/2000/svg" viewBox="0 0 512 512" style="height: 512px; width: 512px;"><defs><filter id="shadow-1" height="300%" width="300%" x="-100%" y="-100%"><feFlood flood-color="rgba(0, 0, 0, 1)" result="flood"></feFlood><feComposite in="flood" in2="SourceGraphic" operator="atop" result="composite"></feComposite><feGaussianBlur in="composite" stdDeviation="5" result="blur"></feGaussianBlur><feOffset dx="0" dy="0" result="offset"></feOffset><feComposite in="SourceGraphic" in2="offset" operator="over"></feComposite></filter><linearGradient x1="0" x2="1" y1="0" y2="1" id="delapouite-shopping-cart-gradient-1"><stop offset="0%" stop-color="#ff0000" stop-opacity="1"></stop><stop offset="100%" stop-color="#6432ff" stop-opacity="1"></stop></linearGradient></defs><g class="" transform="translate(0,0)" style=""><path d="M25.45 63.043l-4.364 17.463 8.73 2.18L90.44 97.846l29.402 44.1 62.44 187.32-36.845 73.693h17.827c-2.086 4.238-3.264 8.99-3.264 14 0 17.567 14.433 32 32 32s32-14.433 32-32c0-5.01-1.178-9.762-3.264-14h102.528c-2.086 4.238-3.264 8.99-3.264 14 0 17.567 14.433 32 32 32s32-14.433 32-32c0-5.01-1.178-9.762-3.264-14H393v-18H174.562l23-46h192.924l70-210h-327.67L101.56 82.07 34.183 65.227l-8.733-2.184zm115.038 83.914H231v46h-75.178l-15.334-46zm108.512 0h78v46h-78v-46zm96 0h90.512l-15.334 46H345v-46zm-183.18 64H231v46h-53.846l-15.334-46zm87.18 0h78v46h-78v-46zm96 0h69.18l-15.334 46H345v-46zm-161.846 64H231v46h-32.514l-15.332-46zm65.846 0h78v46h-78v-46zm96 0h47.846l-15.332 46H345v-46zm-153 128c7.84 0 14 6.16 14 14s-6.16 14-14 14-14-6.16-14-14 6.16-14 14-14zm160 0c7.84 0 14 6.16 14 14s-6.16 14-14 14-14-6.16-14-14 6.16-14 14-14z" fill="url(#delapouite-shopping-cart-gradient-1)" stroke="#ccc" stroke-opacity="1" stroke-width="8" filter="url(#shadow-1)"></path></g></svg>